<svg xmlns="http://www.w3.org/2000/svg" viewBox="0 0 512 512" role="img" aria-label="BetterStep app icon">
  <defs><linearGradient id="bg" x1="0" y1="0" x2="1" y2="1"><stop offset="0" stop-color="#1B3D34"/><stop offset="1" stop-color="#0B2D27"/></linearGradient></defs>
  <rect x="28" y="28" width="456" height="456" rx="96" fill="url(#bg)"/>
  <g transform="translate(45,35) scale(0.82)">
    <path d="M170 470 C110 385 77 286 95 196 C113 107 176 49 252 27 C244 95 283 158 350 196 C304 228 274 273 267 326 C260 379 224 425 170 470 Z" fill="#F7F5EF"/>
    <path d="M171 437 C196 364 229 302 280 246 C238 268 203 300 174 340 C153 371 142 402 140 430 Z" fill="#1B3D34" opacity="0.16"/>
    <path d="M219 330 h52 v-52 h52 v-52 h55" fill="none" stroke="#1B3D34" stroke-width="28" stroke-linecap="round" stroke-linejoin="round"/>
    <path d="M80 397 C158 412 240 390 328 331 C371 302 411 280 454 272 C411 325 353 365 282 395 C203 429 135 429 80 397 Z" fill="#B8735E"/>
    <path d="M112 386 C186 397 260 374 336 323" fill="none" stroke="#F7F5EF" stroke-width="13" stroke-linecap="round" opacity="0.9"/>
  </g>
</svg>